<svg class="animated" id="freepik_stories-bibliophile" xmlns="http://www.w3.org/2000/svg" viewBox="0 0 500 500" version="1.1" xmlns:xlink="http://www.w3.org/1999/xlink" xmlns:svgjs="http://svgjs.com/svgjs"><style>svg#freepik_stories-bibliophile:not(.animated) .animable {opacity: 0;}svg#freepik_stories-bibliophile.animated #freepik--background-complete--inject-8 {animation: 1s 1 forwards cubic-bezier(.36,-0.01,.5,1.38) zoomOut,1.5s Infinite  linear floating;animation-delay: 0s,1s;}svg#freepik_stories-bibliophile.animated #freepik--Shadow--inject-8 {animation: 1s 1 forwards cubic-bezier(.36,-0.01,.5,1.38) zoomOut,1.5s Infinite  linear floating;animation-delay: 0s,1s;}svg#freepik_stories-bibliophile.animated #freepik--Books--inject-8 {animation: 1s 1 forwards cubic-bezier(.36,-0.01,.5,1.38) zoomIn,1.5s Infinite  linear floating;animation-delay: 0s,1s;}svg#freepik_stories-bibliophile.animated #freepik--Character--inject-8 {animation: 1s 1 forwards cubic-bezier(.36,-0.01,.5,1.38) slideRight,1.5s Infinite  linear floating;animation-delay: 0s,1s;}            @keyframes zoomOut {                0% {                    opacity: 0;                    transform: scale(1.5);                }                100% {                    opacity: 1;                    transform: scale(1);                }            }                    @keyframes floating {                0% {                    opacity: 1;                    transform: translateY(0px);                }                50% {                    transform: translateY(-10px);                }                100% {                    opacity: 1;                    transform: translateY(0px);                }            }                    @keyframes zoomIn {                0% {                    opacity: 0;                    transform: scale(0.5);                }                100% {                    opacity: 1;                    transform: scale(1);                }            }                    @keyframes slideRight {                0% {                    opacity: 0;                    transform: translateX(30px);                }                100% {                    opacity: 1;                    transform: translateX(0);                }            }        </style><g id="freepik--background-complete--inject-8" class="animable" style="transform-origin: 250px 226.87px;"><rect y="382.4" width="500" height="0.25" style="fill: rgb(235, 235, 235); transform-origin: 250px 382.525px;" id="el7xk9lee45c8" class="animable"></rect><rect x="423.67" y="398.49" width="26.23" height="0.25" style="fill: rgb(235, 235, 235); transform-origin: 436.785px 398.615px;" id="elnqig34ltxe" class="animable"></rect><rect x="322.53" y="395.24" width="34.23" height="0.25" style="fill: rgb(235, 235, 235); transform-origin: 339.645px 395.365px;" id="elbrnkf4unwk" class="animable"></rect><rect x="389.33" y="389.21" width="26.44" height="0.25" style="fill: rgb(235, 235, 235); transform-origin: 402.55px 389.335px;" id="ele9ib4t3b0o" class="animable"></rect><rect x="67.7" y="390.89" width="43.19" height="0.25" style="fill: rgb(235, 235, 235); transform-origin: 89.295px 391.015px;" id="elzzde1enfve" class="animable"></rect><rect x="52.46" y="390.89" width="6.33" height="0.25" style="fill: rgb(235, 235, 235); transform-origin: 55.625px 391.015px;" id="eluc50o69fm4o" class="animable"></rect><rect x="131.47" y="395.11" width="56.2" height="0.25" style="fill: rgb(235, 235, 235); transform-origin: 159.57px 395.235px;" id="el1zexthoau7t" class="animable"></rect><path d="M237,337.8H43.91a5.71,5.71,0,0,1-5.7-5.71V60.66A5.71,5.71,0,0,1,43.91,55H237a5.71,5.71,0,0,1,5.71,5.71V332.09A5.71,5.71,0,0,1,237,337.8ZM43.91,55.2a5.46,5.46,0,0,0-5.45,5.46V332.09a5.46,5.46,0,0,0,5.45,5.46H237a5.47,5.47,0,0,0,5.46-5.46V60.66A5.47,5.47,0,0,0,237,55.2Z" style="fill: rgb(235, 235, 235); transform-origin: 140.46px 196.4px;" id="elluku0lr991o" class="animable"></path><path d="M453.31,337.8H260.21a5.72,5.72,0,0,1-5.71-5.71V60.66A5.72,5.72,0,0,1,260.21,55h193.1A5.71,5.71,0,0,1,459,60.66V332.09A5.71,5.71,0,0,1,453.31,337.8ZM260.21,55.2a5.47,5.47,0,0,0-5.46,5.46V332.09a5.47,5.47,0,0,0,5.46,5.46h193.1a5.47,5.47,0,0,0,5.46-5.46V60.66a5.47,5.47,0,0,0-5.46-5.46Z" style="fill: rgb(235, 235, 235); transform-origin: 356.75px 196.4px;" id="elsi3q5qtmdlk" class="animable"></path><rect x="66.62" y="83.46" width="271.32" height="155.44" style="fill: rgb(230, 230, 230); transform-origin: 202.28px 161.18px;" id="elfedizs94qv6" class="animable"></rect><rect x="68.51" y="83.46" width="273.47" height="155.44" style="fill: rgb(240, 240, 240); transform-origin: 205.245px 161.18px;" id="elortp828d9t" class="animable"></rect><g id="el5hbzfypvo3r"><rect x="133.87" y="30.09" width="142.75" height="262.17" style="fill: rgb(250, 250, 250); transform-origin: 205.245px 161.175px; transform: rotate(90deg);" class="animable" id="elfx7n1n04d2"></rect></g><polygon points="106.34 232.55 139.49 89.8 182.96 89.8 149.8 232.55 106.34 232.55" style="fill: rgb(255, 255, 255); transform-origin: 144.65px 161.175px;" id="elm5q4gtaqoo9" class="animable"></polygon><polygon points="156.84 232.55 189.99 89.8 209.62 89.8 176.47 232.55 156.84 232.55" style="fill: rgb(255, 255, 255); transform-origin: 183.23px 161.175px;" id="el1kyled786un" class="animable"></polygon><polygon points="234.72 232.55 267.88 89.8 301.41 89.8 268.25 232.55 234.72 232.55" style="fill: rgb(255, 255, 255); transform-origin: 268.065px 161.175px;" id="elnjfncw7qjo7" class="animable"></polygon><g id="elfur9nxhmbts"><rect x="264.6" y="160.82" width="142.75" height="0.72" style="fill: rgb(230, 230, 230); transform-origin: 335.975px 161.18px; transform: rotate(90deg);" class="animable" id="el4ntdhecualm"></rect></g><rect x="197.1" y="83.46" width="16.3" height="155.44" style="fill: rgb(240, 240, 240); transform-origin: 205.25px 161.18px;" id="elr7p5vd6wa9h" class="animable"></rect><g id="el957c6ztgkp"><rect x="125.36" y="160.82" width="142.75" height="0.72" style="fill: rgb(230, 230, 230); transform-origin: 196.735px 161.18px; transform: rotate(90deg);" class="animable" id="elusu1q215qfg"></rect></g><rect x="204.96" y="83.46" width="0.57" height="155.44" style="fill: rgb(230, 230, 230); transform-origin: 205.245px 161.18px;" id="elspwq5jtl1wg" class="animable"></rect><g id="elvg5vdntzcq"><g style="opacity: 0.7; transform-origin: 205.53px 137.8px;" class="animable" id="eluo63f5d5fdi"><g id="elxbnlyxss9"><rect x="321.4" y="75.22" width="26.08" height="125.16" style="fill: rgb(235, 235, 235); transform-origin: 334.44px 137.8px; transform: rotate(180deg);" class="animable" id="el5g1y7irvil8"></rect></g><rect x="304.51" y="75.22" width="16.89" height="110.55" style="fill: rgb(224, 224, 224); transform-origin: 312.955px 130.495px;" id="elej3ghn1zp2w" class="animable"></rect><g id="elcpxgj5zs4yi"><rect x="278.43" y="75.22" width="26.08" height="125.16" style="fill: rgb(235, 235, 235); transform-origin: 291.47px 137.8px; transform: rotate(180deg);" class="animable" id="elvcqaq2m28vl"></rect></g><rect x="261.54" y="75.22" width="16.89" height="110.55" style="fill: rgb(224, 224, 224); transform-origin: 269.985px 130.495px;" id="elzhultjvqpq" class="animable"></rect><g id="elna8p318bt7"><rect x="235.46" y="75.22" width="26.08" height="125.16" style="fill: rgb(235, 235, 235); transform-origin: 248.5px 137.8px; transform: rotate(180deg);" class="animable" id="elv1k2e6k74xi"></rect></g><rect x="218.57" y="75.22" width="16.89" height="110.55" style="fill: rgb(224, 224, 224); transform-origin: 227.015px 130.495px;" id="elvi3tat02shb" class="animable"></rect><g id="el4q74nta5vdh"><rect x="192.49" y="75.22" width="26.08" height="125.16" style="fill: rgb(235, 235, 235); transform-origin: 205.53px 137.8px; transform: rotate(180deg);" class="animable" id="el7mwwov82c6s"></rect></g><rect x="175.6" y="75.22" width="16.89" height="110.55" style="fill: rgb(224, 224, 224); transform-origin: 184.045px 130.495px;" id="elxjub691hkk" class="animable"></rect><g id="eltk7neul41gf"><rect x="149.52" y="75.22" width="26.08" height="125.16" style="fill: rgb(235, 235, 235); transform-origin: 162.56px 137.8px; transform: rotate(180deg);" class="animable" id="elsav6j7hikm"></rect></g><rect x="132.63" y="75.22" width="16.89" height="110.55" style="fill: rgb(224, 224, 224); transform-origin: 141.075px 130.495px;" id="elu0c3qo170go" class="animable"></rect><g id="elmh4xnoih98j"><rect x="106.55" y="75.22" width="26.08" height="125.16" style="fill: rgb(235, 235, 235); transform-origin: 119.59px 137.8px; transform: rotate(180deg);" class="animable" id="elniwaehahnge"></rect></g><g id="elk981ap4r8ei"><rect x="63.58" y="75.22" width="26.08" height="125.16" style="fill: rgb(235, 235, 235); transform-origin: 76.62px 137.8px; transform: rotate(180deg);" class="animable" id="el2lg7p2g9nbb"></rect></g><rect x="89.66" y="75.22" width="16.89" height="110.55" style="fill: rgb(224, 224, 224); transform-origin: 98.105px 130.495px;" id="elhawdsudo995" class="animable"></rect></g></g><rect x="399.64" y="284.33" width="33.55" height="98.07" style="fill: rgb(230, 230, 230); transform-origin: 416.415px 333.365px;" id="ellfxifytgl1" class="animable"></rect><polygon points="424.22 382.4 433.18 382.4 433.18 365.48 414.83 365.48 424.22 382.4" style="fill: rgb(245, 245, 245); transform-origin: 424.005px 373.94px;" id="el22f765cmj3ch" class="animable"></polygon><rect x="194.46" y="284.33" width="33.55" height="98.07" style="fill: rgb(230, 230, 230); transform-origin: 211.235px 333.365px;" id="el7gfrieltoy" class="animable"></rect><rect x="220.19" y="284.33" width="212.99" height="92.24" style="fill: rgb(245, 245, 245); transform-origin: 326.685px 330.45px;" id="el8eja841i2yt" class="animable"></rect><polygon points="229.14 382.4 220.19 382.4 220.19 365.48 238.54 365.48 229.14 382.4" style="fill: rgb(245, 245, 245); transform-origin: 229.365px 373.94px;" id="elstby8z2miu" class="animable"></polygon><rect x="227.14" y="292.42" width="199.1" height="34.14" style="fill: rgb(230, 230, 230); transform-origin: 326.69px 309.49px;" id="el17zq3rik2ib" class="animable"></rect><rect x="227.14" y="333.87" width="199.1" height="34.14" style="fill: rgb(230, 230, 230); transform-origin: 326.69px 350.94px;" id="el2wh19w0gnir" class="animable"></rect><g id="elmjaj8imbjf"><rect x="396.04" y="128.41" width="51.27" height="8.22" style="fill: rgb(240, 240, 240); transform-origin: 421.675px 132.52px; transform: rotate(180deg);" class="animable" id="elx08a56xuqs"></rect></g><rect x="371.59" y="128.41" width="24.45" height="8.22" style="fill: rgb(230, 230, 230); transform-origin: 383.815px 132.52px;" id="elcv8wq8snif" class="animable"></rect><polygon points="396.98 136.63 421.67 136.63 403.67 148.38 396.98 148.38 396.98 136.63" style="fill: rgb(235, 235, 235); transform-origin: 409.325px 142.505px;" id="el95u9a72p3o" class="animable"></polygon><polygon points="394.4 136.63 419.09 136.63 401.09 148.38 394.4 148.38 394.4 136.63" style="fill: rgb(224, 224, 224); transform-origin: 406.745px 142.505px;" id="el6julzmun383" class="animable"></polygon><g id="elatnbzjjt1xr"><rect x="415.3" y="93.2" width="16.05" height="35.2" style="fill: rgb(230, 230, 230); transform-origin: 423.325px 110.8px; transform: rotate(180deg);" class="animable" id="el189jowa4d6f"></rect></g><rect x="431.35" y="93.2" width="4.64" height="35.2" style="fill: rgb(240, 240, 240); transform-origin: 433.67px 110.8px;" id="elr97wsyusz6" class="animable"></rect><polygon points="394.62 96.31 415.3 96.31 420.29 128.41 399.6 128.41 394.62 96.31" style="fill: rgb(230, 230, 230); transform-origin: 407.455px 112.36px;" id="elrzecloqlyo" class="animable"></polygon><polygon points="421.28 96.31 415.3 96.31 420.29 128.41 426.27 128.41 421.28 96.31" style="fill: rgb(240, 240, 240); transform-origin: 420.785px 112.36px;" id="elw4mpnokbxtr" class="animable"></polygon><g id="elazhidmlg24"><rect x="385.08" y="92.03" width="23.44" height="36.38" style="fill: rgb(235, 235, 235); transform-origin: 396.8px 110.22px; transform: rotate(180deg);" class="animable" id="eleaqmik12gic"></rect></g><rect x="408.52" y="92.03" width="6.78" height="36.38" style="fill: rgb(245, 245, 245); transform-origin: 411.91px 110.22px;" id="elcc8tkam1ih8" class="animable"></rect><path d="M403.08,128.41h-1v-21.9a6.89,6.89,0,1,0-13.78,0v21.9h-1v-21.9a7.89,7.89,0,1,1,15.78,0Z" style="fill: rgb(224, 224, 224); transform-origin: 395.19px 113.515px;" id="elwefeeewk7o" class="animable"></path><g id="el6fd6469dr8"><rect x="396.04" y="199.71" width="51.27" height="8.22" style="fill: rgb(240, 240, 240); transform-origin: 421.675px 203.82px; transform: rotate(180deg);" class="animable" id="el8nq94jtqb38"></rect></g><rect x="371.59" y="199.71" width="24.45" height="8.22" style="fill: rgb(230, 230, 230); transform-origin: 383.815px 203.82px;" id="elkydokmfnh4" class="animable"></rect><polygon points="396.98 207.93 421.67 207.93 403.67 219.69 396.98 219.69 396.98 207.93" style="fill: rgb(235, 235, 235); transform-origin: 409.325px 213.81px;" id="elugdn2zylmih" class="animable"></polygon><polygon points="394.4 207.93 419.09 207.93 401.09 219.69 394.4 219.69 394.4 207.93" style="fill: rgb(224, 224, 224); transform-origin: 406.745px 213.81px;" id="elt6ahdsoaroa" class="animable"></polygon><g id="elvs1lvddu5wc"><rect x="409.83" y="173.68" width="23.44" height="26.03" style="fill: rgb(224, 224, 224); transform-origin: 421.55px 186.695px; transform: rotate(180deg);" class="animable" id="elfe8edoqbcms"></rect></g><rect x="433.27" y="173.68" width="6.01" height="26.03" style="fill: rgb(240, 240, 240); transform-origin: 436.275px 186.695px;" id="elfhormzzmypk" class="animable"></rect><g id="elzscc3g9074"><rect x="402.58" y="166.32" width="20.09" height="33.39" style="fill: rgb(224, 224, 224); transform-origin: 412.625px 183.015px; transform: rotate(180deg);" class="animable" id="elnmndm294gvo"></rect></g><rect x="422.67" y="166.32" width="4.09" height="33.39" style="fill: rgb(235, 235, 235); transform-origin: 424.715px 183.015px;" id="elaorwlx5fnf" class="animable"></rect><g id="elt5gxql84njm"><rect x="396.1" y="169.67" width="17.61" height="30.05" style="fill: rgb(230, 230, 230); transform-origin: 404.905px 184.695px; transform: rotate(180deg);" class="animable" id="el6qjlbewbxxc"></rect></g><rect x="413.71" y="169.67" width="5.09" height="30.05" style="fill: rgb(240, 240, 240); transform-origin: 416.255px 184.695px;" id="elxfuved8tm2" class="animable"></rect><g id="elkipdq5a7q9"><rect x="385.08" y="173.68" width="23.44" height="26.03" style="fill: rgb(240, 240, 240); transform-origin: 396.8px 186.695px; transform: rotate(180deg);" class="animable" id="elifemq22v94"></rect></g><rect x="408.52" y="173.68" width="3.39" height="26.03" style="fill: rgb(250, 250, 250); transform-origin: 410.215px 186.695px;" id="el0xxjp0n03r4f" class="animable"></rect><path d="M403.08,199.71h-1V177.82a6.89,6.89,0,0,0-13.78,0v21.89h-1V177.82a7.89,7.89,0,0,1,15.78,0Z" style="fill: rgb(224, 224, 224); transform-origin: 395.19px 184.82px;" id="el84m99j6y0p9" class="animable"></path><rect x="143.07" y="300.72" width="8.63" height="81.68" style="fill: rgb(245, 245, 245); transform-origin: 147.385px 341.56px;" id="elenvka3nlok8" class="animable"></rect><rect x="147.95" y="300.72" width="7.51" height="81.68" style="fill: rgb(240, 240, 240); transform-origin: 151.705px 341.56px;" id="ele3kqs3npgak" class="animable"></rect><rect x="56.06" y="300.72" width="8.63" height="81.68" style="fill: rgb(245, 245, 245); transform-origin: 60.375px 341.56px;" id="elf2vxfm9zwxq" class="animable"></rect><rect x="60.94" y="300.72" width="7.51" height="81.68" style="fill: rgb(240, 240, 240); transform-origin: 64.695px 341.56px;" id="elc7ky0oykmlq" class="animable"></rect><rect x="175.79" y="300.72" width="8.63" height="81.68" style="fill: rgb(245, 245, 245); transform-origin: 180.105px 341.56px;" id="ellun46qnlxom" class="animable"></rect><rect x="180.66" y="300.72" width="7.51" height="81.68" style="fill: rgb(240, 240, 240); transform-origin: 184.415px 341.56px;" id="elh7pne7x9sll" class="animable"></rect><rect x="88.78" y="300.72" width="8.63" height="81.68" style="fill: rgb(245, 245, 245); transform-origin: 93.095px 341.56px;" id="elmoyp89nomzc" class="animable"></rect><g id="elrathmu3pmm"><rect x="56.06" y="292.42" width="132.11" height="10.36" style="fill: rgb(240, 240, 240); transform-origin: 122.115px 297.6px; transform: rotate(180deg);" class="animable" id="elfr5al5fx889"></rect></g><g id="el0m8is8vnsd8"><rect x="56.06" y="292.42" width="37.59" height="10.36" style="fill: rgb(230, 230, 230); transform-origin: 74.855px 297.6px; transform: rotate(180deg);" class="animable" id="elonuv2tocgqc"></rect></g><rect x="93.66" y="300.72" width="7.51" height="81.68" style="fill: rgb(240, 240, 240); transform-origin: 97.415px 341.56px;" id="elcuzx3lbthab" class="animable"></rect></g><g id="freepik--Shadow--inject-8" class="animable" style="transform-origin: 250px 416.24px;"><ellipse id="freepik--path--inject-8" cx="250" cy="416.24" rx="193.89" ry="11.32" style="fill: rgb(245, 245, 245); transform-origin: 250px 416.24px;" class="animable"></ellipse></g><g id="freepik--Books--inject-8" class="animable" style="transform-origin: 257.96px 321.625px;"><g id="eljletaagae1m"><path d="M191.56,366.35H391.5a0,0,0,0,1,0,0v50.14a0,0,0,0,1,0,0H191.56a3.88,3.88,0,0,1-3.88-3.88V370.23A3.88,3.88,0,0,1,191.56,366.35Z" style="fill: #ECEFF1; transform-origin: 289.59px 391.42px; transform: rotate(180deg);" class="animable" id="elp7ptbj4v5el"></path></g><g id="elyv9da3q37kh"><path d="M191.56,366.35H391.5a0,0,0,0,1,0,0v50.14a0,0,0,0,1,0,0H191.56a3.88,3.88,0,0,1-3.88-3.88V370.23A3.88,3.88,0,0,1,191.56,366.35Z" style="opacity: 0.2; transform-origin: 289.59px 391.42px; transform: rotate(180deg);" class="animable" id="ells8tux2wwu"></path></g><g id="el8x2szc8mdbl"><rect x="236.7" y="366.35" width="30.59" height="50.14" style="opacity: 0.2; transform-origin: 251.995px 391.42px; transform: rotate(180deg);" class="animable" id="el4m5529otfiq"></rect></g><g id="elp3wg5j4kh2"><rect x="280.44" y="366.35" width="15.51" height="50.14" style="opacity: 0.2; transform-origin: 288.195px 391.42px; transform: rotate(180deg);" class="animable" id="el1z4awc2tc7p"></rect></g><path d="M121.46,366.35h66.22a0,0,0,0,1,0,0v50.14a0,0,0,0,1,0,0H121.46a3.9,3.9,0,0,1-3.9-3.9V370.25A3.9,3.9,0,0,1,121.46,366.35Z" style="fill: #ECEFF1; transform-origin: 152.62px 391.42px;" id="elt8tplgrxq4q" class="animable"></path><g id="ela4j93c270m7"><path d="M117.56,371.74h57.93a5.09,5.09,0,0,1,5.09,5.09V406a5.09,5.09,0,0,1-5.09,5.09H117.56a0,0,0,0,1,0,0V371.74A0,0,0,0,1,117.56,371.74Z" style="fill: rgb(255, 255, 255); opacity: 0.9; transform-origin: 149.07px 391.415px;" class="animable" id="el5pryztpdp3b"></path></g><g id="eljrfp4v9dqo"><circle cx="363.49" cy="391.42" r="14.34" style="opacity: 0.2; transform-origin: 363.49px 391.42px;" class="animable" id="elolnvazqfxi9"></circle></g><g id="els77d5v05bd"><path d="M206,330H406a0,0,0,0,1,0,0v36.39a0,0,0,0,1,0,0H206a3.88,3.88,0,0,1-3.88-3.88V333.84A3.88,3.88,0,0,1,206,330Z" style="fill: rgb(38, 50, 56); transform-origin: 304.06px 348.195px; transform: rotate(180deg);" class="animable" id="eldkfljbgsn"></path></g><g id="elz5pn9xzyo1k"><path d="M206,330H406a0,0,0,0,1,0,0v36.39a0,0,0,0,1,0,0H206a3.88,3.88,0,0,1-3.88-3.88V333.84A3.88,3.88,0,0,1,206,330Z" style="opacity: 0.2; transform-origin: 304.06px 348.195px; transform: rotate(180deg);" class="animable" id="elrv08xhqyuxd"></path></g><path d="M135.93,330h66.22a0,0,0,0,1,0,0v36.39a0,0,0,0,1,0,0H135.93a3.9,3.9,0,0,1-3.9-3.9V333.86A3.9,3.9,0,0,1,135.93,330Z" style="fill: rgb(38, 50, 56); transform-origin: 167.09px 348.195px;" id="elouq2queqt9i" class="animable"></path><g id="elqdpytmloc1"><path d="M132,335.35H190a5.09,5.09,0,0,1,5.09,5.09v15.45A5.09,5.09,0,0,1,190,361H132a0,0,0,0,1,0,0V335.35A0,0,0,0,1,132,335.35Z" style="fill: rgb(255, 255, 255); opacity: 0.9; transform-origin: 163.545px 348.175px;" class="animable" id="elhg6um4295r7"></path></g><g id="eljfzhw24mprg"><rect x="239.83" y="338.58" width="148.28" height="19.16" rx="4.19" style="fill: #ECEFF1; opacity: 0.3; transform-origin: 313.97px 348.16px; transform: rotate(180deg);" class="animable" id="ele68wtfap9z"></rect></g><g id="elu88kot9lmgb"><rect x="209.74" y="329.96" width="5.31" height="36.39" style="fill: #ECEFF1; opacity: 0.3; transform-origin: 212.395px 348.155px; transform: rotate(180deg);" class="animable" id="elimm4dmpwfrh"></rect></g><g id="elcjhmcxr85ak"><rect x="219.44" y="329.96" width="5.31" height="36.39" style="fill: #ECEFF1; opacity: 0.3; transform-origin: 222.095px 348.155px; transform: rotate(180deg);" class="animable" id="els9pr981okn"></rect></g><g id="elw4lzj986ue"><path d="M183.92,292.42H383.85a0,0,0,0,1,0,0V330a0,0,0,0,1,0,0H183.92a3.88,3.88,0,0,1-3.88-3.88V296.3A3.88,3.88,0,0,1,183.92,292.42Z" style="fill: #ECEFF1; transform-origin: 281.945px 311.21px; transform: rotate(180deg);" class="animable" id="elifvv6ikknfh"></path></g><g id="elj46lds18oo"><path d="M183.92,292.42H383.85a0,0,0,0,1,0,0V330a0,0,0,0,1,0,0H183.92a3.88,3.88,0,0,1-3.88-3.88V296.3A3.88,3.88,0,0,1,183.92,292.42Z" style="opacity: 0.3; transform-origin: 281.945px 311.21px; transform: rotate(180deg);" class="animable" id="eljcrkmvbs4bi"></path></g><g id="elz9yt2e0qwa"><rect x="229.05" y="292.42" width="69.42" height="37.54" style="fill: rgb(255, 255, 255); opacity: 0.9; transform-origin: 263.76px 311.19px; transform: rotate(180deg);" class="animable" id="elzsgwdschi5o"></rect></g><g id="el6t7x3sktdsd"><rect x="328.29" y="292.42" width="35.2" height="37.54" style="fill: rgb(255, 255, 255); opacity: 0.9; transform-origin: 345.89px 311.19px; transform: rotate(180deg);" class="animable" id="el9wq2o7mog1p"></rect></g><path d="M113.82,292.42H180a0,0,0,0,1,0,0V330a0,0,0,0,1,0,0H113.82a3.9,3.9,0,0,1-3.9-3.9V296.32A3.9,3.9,0,0,1,113.82,292.42Z" style="fill: #ECEFF1; transform-origin: 144.96px 311.21px;" id="el4onvivblxv" class="animable"></path><g id="elem2inwsyasq"><path d="M109.92,297.8h57.93a5.09,5.09,0,0,1,5.09,5.09v16.59a5.09,5.09,0,0,1-5.09,5.09H109.92a0,0,0,0,1,0,0V297.8A0,0,0,0,1,109.92,297.8Z" style="fill: rgb(255, 255, 255); opacity: 0.9; transform-origin: 141.43px 311.185px;" class="animable" id="el625zey97kls"></path></g><g id="elmunk2qhk3ip"><path d="M198.38,267.52H398.31a0,0,0,0,1,0,0v24.9a0,0,0,0,1,0,0H198.38a3.88,3.88,0,0,1-3.88-3.88V271.4A3.88,3.88,0,0,1,198.38,267.52Z" style="fill: #ECEFF1; transform-origin: 296.405px 279.97px; transform: rotate(180deg);" class="animable" id="elf4gnv1en7pc"></path></g><g id="elth8pgo99yi"><path d="M198.38,267.52H398.31a0,0,0,0,1,0,0v24.9a0,0,0,0,1,0,0H198.38a3.88,3.88,0,0,1-3.88-3.88V271.4A3.88,3.88,0,0,1,198.38,267.52Z" style="fill: rgb(255, 255, 255); opacity: 0.3; transform-origin: 296.405px 279.97px; transform: rotate(180deg);" class="animable" id="el7l8jcg7x88u"></path></g><g id="eldk45i9p285n"><path d="M198.38,267.52H398.31a0,0,0,0,1,0,0v24.9a0,0,0,0,1,0,0H198.38a3.88,3.88,0,0,1-3.88-3.88V271.4A3.88,3.88,0,0,1,198.38,267.52Z" style="opacity: 0.2; transform-origin: 296.405px 279.97px; transform: rotate(180deg);" class="animable" id="elf0o4r6oz8ib"></path></g><path d="M128.28,267.52H194.5a0,0,0,0,1,0,0v24.9a0,0,0,0,1,0,0H128.28a3.9,3.9,0,0,1-3.9-3.9v-17.1A3.9,3.9,0,0,1,128.28,267.52Z" style="fill: #ECEFF1; transform-origin: 159.44px 279.97px;" id="elylx08xlysym" class="animable"></path><g id="elo9n9a1wepo"><path d="M128.28,267.52H194.5a0,0,0,0,1,0,0v24.9a0,0,0,0,1,0,0H128.28a3.9,3.9,0,0,1-3.9-3.9v-17.1A3.9,3.9,0,0,1,128.28,267.52Z" style="fill: rgb(255, 255, 255); opacity: 0.3; transform-origin: 159.44px 279.97px;" class="animable" id="elb3gdiay0gt"></path></g><g id="elva0w1nstmq"><path d="M124.38,272.91H182.3a5.09,5.09,0,0,1,5.09,5.09v4A5.09,5.09,0,0,1,182.3,287H124.38a0,0,0,0,1,0,0V272.91A0,0,0,0,1,124.38,272.91Z" style="fill: rgb(255, 255, 255); opacity: 0.9; transform-origin: 155.885px 279.955px;" class="animable" id="elzbygmp9y96"></path></g><g id="el102km9xecgsq"><rect x="212.4" y="274.08" width="90.62" height="11.77" style="fill: rgb(38, 50, 56); opacity: 0.4; transform-origin: 257.71px 279.965px; transform: rotate(180deg);" class="animable" id="elznmyzioxao"></rect></g><path d="M228.9,259.28h28.59a0,0,0,0,1,0,0v8.25a0,0,0,0,1,0,0H228.9a.64.64,0,0,1-.64-.64v-7A.64.64,0,0,1,228.9,259.28Z" style="fill: #ECEFF1; transform-origin: 242.875px 263.405px;" id="el1zc7uhsbz32" class="animable"></path><g id="elvqhk6sebz5"><path d="M228.9,259.28h28.59a0,0,0,0,1,0,0v8.25a0,0,0,0,1,0,0H228.9a.64.64,0,0,1-.64-.64v-7A.64.64,0,0,1,228.9,259.28Z" style="opacity: 0.2; transform-origin: 242.875px 263.405px;" class="animable" id="elsumxd440fn"></path></g><g id="elbnqyi8pm8in"><path d="M258.14,259.28H269a0,0,0,0,1,0,0v8.25a0,0,0,0,1,0,0h-10.9a.64.64,0,0,1-.64-.64v-7A.64.64,0,0,1,258.14,259.28Z" style="fill: #ECEFF1; transform-origin: 263.23px 263.404px; transform: rotate(180deg);" class="animable" id="elkzlrm9eqm6"></path></g><g id="ely3u5m73odc"><path d="M258.66,260.17h9.53a.84.84,0,0,1,.84.84v4.8a.84.84,0,0,1-.84.84h-9.53a0,0,0,0,1,0,0v-6.48A0,0,0,0,1,258.66,260.17Z" style="fill: rgb(255, 255, 255); opacity: 0.9; transform-origin: 263.845px 263.41px; transform: rotate(180deg);" class="animable" id="el1n1qs0kdko8"></path></g><path d="M226.52,253.29h28.59a0,0,0,0,1,0,0v6a0,0,0,0,1,0,0H226.52a.64.64,0,0,1-.64-.64v-4.71A.64.64,0,0,1,226.52,253.29Z" style="fill: rgb(38, 50, 56); transform-origin: 240.495px 256.29px;" id="elkxw5mm4vcu8" class="animable"></path><g id="elkzx3xtbuhyk"><path d="M226.52,253.29h28.59a0,0,0,0,1,0,0v6a0,0,0,0,1,0,0H226.52a.64.64,0,0,1-.64-.64v-4.71A.64.64,0,0,1,226.52,253.29Z" style="opacity: 0.2; transform-origin: 240.495px 256.29px;" class="animable" id="elvlis8vmgc4"></path></g><g id="eluq54g8xlrl8"><path d="M255.76,253.29h10.9a0,0,0,0,1,0,0v6a0,0,0,0,1,0,0h-10.9a.64.64,0,0,1-.64-.64v-4.71A.64.64,0,0,1,255.76,253.29Z" style="fill: rgb(38, 50, 56); transform-origin: 260.89px 256.29px; transform: rotate(180deg);" class="animable" id="eloq131ar5bmk"></path></g><g id="elfai0pk9bgdo"><path d="M256.28,254.18h9.53a.84.84,0,0,1,.84.84v2.54a.84.84,0,0,1-.84.84h-9.53a0,0,0,0,1,0,0v-4.22A0,0,0,0,1,256.28,254.18Z" style="fill: rgb(255, 255, 255); opacity: 0.9; transform-origin: 261.465px 256.29px; transform: rotate(180deg);" class="animable" id="elegtb4d8eais"></path></g><path d="M230.16,247.12h28.59a0,0,0,0,1,0,0v6.18a0,0,0,0,1,0,0H230.16a.64.64,0,0,1-.64-.64v-4.9A.64.64,0,0,1,230.16,247.12Z" style="fill: #ECEFF1; transform-origin: 244.135px 250.21px;" id="elldhesvgxob" class="animable"></path><g id="elhdt62clbtwq"><path d="M230.16,247.12h28.59a0,0,0,0,1,0,0v6.18a0,0,0,0,1,0,0H230.16a.64.64,0,0,1-.64-.64v-4.9A.64.64,0,0,1,230.16,247.12Z" style="opacity: 0.3; transform-origin: 244.135px 250.21px;" class="animable" id="elnk2k4wbymt"></path></g><g id="eldoygohcbxdg"><path d="M259.39,247.12h10.9a0,0,0,0,1,0,0v6.18a0,0,0,0,1,0,0h-10.9a.64.64,0,0,1-.64-.64v-4.89A.64.64,0,0,1,259.39,247.12Z" style="fill: #ECEFF1; transform-origin: 264.52px 250.21px; transform: rotate(180deg);" class="animable" id="el85dk149hira"></path></g><g id="elk9qme0qtgs8"><path d="M259.92,248h9.53a.84.84,0,0,1,.84.84v2.73a.84.84,0,0,1-.84.84h-9.53a0,0,0,0,1,0,0V248A0,0,0,0,1,259.92,248Z" style="fill: rgb(255, 255, 255); opacity: 0.9; transform-origin: 265.105px 250.205px; transform: rotate(180deg);" class="animable" id="elzbzjdmzjff"></path></g><path d="M227.78,243h28.59a0,0,0,0,1,0,0v4.1a0,0,0,0,1,0,0H227.78a.64.64,0,0,1-.64-.64v-2.82A.64.64,0,0,1,227.78,243Z" style="fill: #ECEFF1; transform-origin: 241.755px 245.05px;" id="el6tnq8l2rfff" class="animable"></path><g id="elh8h2qh3r59"><path d="M227.78,243h28.59a0,0,0,0,1,0,0v4.1a0,0,0,0,1,0,0H227.78a.64.64,0,0,1-.64-.64v-2.82A.64.64,0,0,1,227.78,243Z" style="fill: rgb(255, 255, 255); opacity: 0.3; transform-origin: 241.755px 245.05px;" class="animable" id="eldw31pogeo9"></path></g><g id="elym93fh6yxfg"><path d="M227.78,243h28.59a0,0,0,0,1,0,0v4.1a0,0,0,0,1,0,0H227.78a.64.64,0,0,1-.64-.64v-2.82A.64.64,0,0,1,227.78,243Z" style="opacity: 0.2; transform-origin: 241.755px 245.05px;" class="animable" id="elpz0tkpoi3yo"></path></g><g id="elohty84niq9"><path d="M257,243h10.9a0,0,0,0,1,0,0v4.1a0,0,0,0,1,0,0H257a.64.64,0,0,1-.64-.64v-2.81A.64.64,0,0,1,257,243Z" style="fill: #ECEFF1; transform-origin: 262.13px 245.05px; transform: rotate(180deg);" class="animable" id="elmj80okzfofa"></path></g><g id="elu78djtfxvbp"><path d="M257,243h10.9a0,0,0,0,1,0,0v4.1a0,0,0,0,1,0,0H257a.64.64,0,0,1-.64-.64v-2.81A.64.64,0,0,1,257,243Z" style="fill: rgb(255, 255, 255); opacity: 0.3; transform-origin: 262.13px 245.05px; transform: rotate(180deg);" class="animable" id="elvvd2j1328wd"></path></g><g id="elqyu2p3inth"><path d="M257.54,243.91h9.53a.84.84,0,0,1,.84.84v.65a.84.84,0,0,1-.84.84h-9.53a0,0,0,0,1,0,0v-2.32A0,0,0,0,1,257.54,243.91Z" style="fill: rgb(255, 255, 255); opacity: 0.9; transform-origin: 262.725px 245.075px; transform: rotate(180deg);" class="animable" id="elnsji7rhburq"></path></g><path d="M226.52,237h28.59a0,0,0,0,1,0,0v6a0,0,0,0,1,0,0H226.52a.64.64,0,0,1-.64-.64v-4.71A.64.64,0,0,1,226.52,237Z" style="fill: rgb(38, 50, 56); transform-origin: 240.495px 240px;" id="el6nkgdo8dy6v" class="animable"></path><g id="elpfcblyuch6"><path d="M226.52,237h28.59a0,0,0,0,1,0,0v6a0,0,0,0,1,0,0H226.52a.64.64,0,0,1-.64-.64v-4.71A.64.64,0,0,1,226.52,237Z" style="opacity: 0.2; transform-origin: 240.495px 240px;" class="animable" id="elpzv7dfm5t99"></path></g><g id="el1rd04uvdjog"><path d="M255.76,237H263a0,0,0,0,1,0,0v6a0,0,0,0,1,0,0h-7.27a.64.64,0,0,1-.64-.64v-4.71A.64.64,0,0,1,255.76,237Z" style="fill: rgb(38, 50, 56); transform-origin: 259.045px 240px; transform: rotate(180deg);" class="animable" id="elkp4do19ec6p"></path></g><g id="el1tu8kxz12c7"><path d="M256.28,237.92h5.9a.84.84,0,0,1,.84.84v2.54a.84.84,0,0,1-.84.84h-5.9a0,0,0,0,1,0,0v-4.22A0,0,0,0,1,256.28,237.92Z" style="fill: rgb(255, 255, 255); opacity: 0.9; transform-origin: 259.65px 240.03px; transform: rotate(180deg);" class="animable" id="el9mqvc3qbf15"></path></g><path d="M230.16,230.85h28.59a0,0,0,0,1,0,0V237a0,0,0,0,1,0,0H230.16a.64.64,0,0,1-.64-.64v-4.9A.64.64,0,0,1,230.16,230.85Z" style="fill: #ECEFF1; transform-origin: 244.135px 233.925px;" id="elg6argaa8qo" class="animable"></path><g id="el3hvf9sy6nv2"><path d="M230.16,230.85h28.59a0,0,0,0,1,0,0V237a0,0,0,0,1,0,0H230.16a.64.64,0,0,1-.64-.64v-4.9A.64.64,0,0,1,230.16,230.85Z" style="opacity: 0.3; transform-origin: 244.135px 233.925px;" class="animable" id="elalxs0fk44a"></path></g><g id="elrjh7lpe49xc"><path d="M259.39,230.85h7.27a0,0,0,0,1,0,0V237a0,0,0,0,1,0,0h-7.27a.64.64,0,0,1-.64-.64v-4.89A.64.64,0,0,1,259.39,230.85Z" style="fill: #ECEFF1; transform-origin: 262.705px 233.925px; transform: rotate(180deg);" class="animable" id="el7pwb97t2qeb"></path></g><g id="el6gfmcj7inx3"><path d="M259.92,231.74h5.9a.84.84,0,0,1,.84.84v2.73a.84.84,0,0,1-.84.84h-5.9a0,0,0,0,1,0,0v-4.41A0,0,0,0,1,259.92,231.74Z" style="fill: rgb(255, 255, 255); opacity: 0.9; transform-origin: 263.29px 233.945px; transform: rotate(180deg);" class="animable" id="elmpp583lub1i"></path></g><path d="M227.78,226.76h28.59a0,0,0,0,1,0,0v4.1a0,0,0,0,1,0,0H227.78a.64.64,0,0,1-.64-.64v-2.82A.64.64,0,0,1,227.78,226.76Z" style="fill: #ECEFF1; transform-origin: 241.755px 228.81px;" id="ela9gssg42uad" class="animable"></path><g id="elyz08nd1x8mj"><path d="M227.78,226.76h28.59a0,0,0,0,1,0,0v4.1a0,0,0,0,1,0,0H227.78a.64.64,0,0,1-.64-.64v-2.82A.64.64,0,0,1,227.78,226.76Z" style="fill: rgb(255, 255, 255); opacity: 0.3; transform-origin: 241.755px 228.81px;" class="animable" id="elglwdcbpp3bt"></path></g><g id="elz4vm5yyza6"><path d="M227.78,226.76h28.59a0,0,0,0,1,0,0v4.1a0,0,0,0,1,0,0H227.78a.64.64,0,0,1-.64-.64v-2.82A.64.64,0,0,1,227.78,226.76Z" style="opacity: 0.2; transform-origin: 241.755px 228.81px;" class="animable" id="elv595z7roahe"></path></g><g id="eltj9okpzkml"><path d="M257,226.76h7.27a0,0,0,0,1,0,0v4.1a0,0,0,0,1,0,0H257a.64.64,0,0,1-.64-.64V227.4A.64.64,0,0,1,257,226.76Z" style="fill: #ECEFF1; transform-origin: 260.315px 228.81px; transform: rotate(180deg);" class="animable" id="eldv6hf8wruk4"></path></g><g id="elvtu9v5yai9"><path d="M257,226.76h7.27a0,0,0,0,1,0,0v4.1a0,0,0,0,1,0,0H257a.64.64,0,0,1-.64-.64V227.4A.64.64,0,0,1,257,226.76Z" style="fill: rgb(255, 255, 255); opacity: 0.3; transform-origin: 260.315px 228.81px; transform: rotate(180deg);" class="animable" id="elnmyjw2houzh"></path></g><g id="el7j2xuonzg25"><path d="M257.54,227.64h5.9a.84.84,0,0,1,.84.84v.65a.84.84,0,0,1-.84.84h-5.9a0,0,0,0,1,0,0v-2.32A0,0,0,0,1,257.54,227.64Z" style="fill: rgb(255, 255, 255); opacity: 0.9; transform-origin: 260.91px 228.805px; transform: rotate(180deg);" class="animable" id="elgr58s77b2n7"></path></g></g><g id="freepik--Character--inject-8" class="animable" style="transform-origin: 145.075px 235.788px;"><polygon points="106.75 336.5 100.15 333.19 105.51 316.79 112.11 320.1 106.75 336.5" style="fill: rgb(255, 195, 189); transform-origin: 106.13px 326.645px;" id="eltievd3uw7rr" class="animable"></polygon><path d="M100.73,330.61l8.1,1.7a.54.54,0,0,1,.44.61l-1,6.49a1.3,1.3,0,0,1-1.53,1c-2.81-.64-4.13-1.09-7.69-1.84-2.19-.46-9.76-2-12.68-3s-1.85-3.87-.52-3.7c6,.74,11.13.07,13.5-1.1A2.1,2.1,0,0,1,100.73,330.61Z" style="fill: rgb(38, 50, 56); transform-origin: 96.8927px 335.497px;" id="elqef5by9165g" class="animable"></path><g id="elyusg331lzan"><polygon points="112.11 320.11 105.51 316.8 102.44 326.21 109.35 328.56 112.11 320.11" style="opacity: 0.2; transform-origin: 107.275px 322.68px;" class="animable" id="eltz8gk109sy"></polygon></g><path d="M179,237.43s-56.59,5.48-61.32,26.09c-6.81,29.61-16,57.75-16,57.75l12.66,2.23c1.94-8.43,16.37-38,23.14-57.93,15.33-2.29,56.31,6.41,62.45-5.25a44.31,44.31,0,0,0,4.89-19.11Z" style="fill: #ECEFF1; transform-origin: 153.25px 280.465px;" id="el13v7xmj7vncc" class="animable"></path><g id="elkmcme41xdy"><path d="M179,237.43s-56.59,5.48-61.32,26.09c-6.81,29.61-16,57.75-16,57.75l12.66,2.23c1.94-8.43,16.37-38,23.14-57.93,15.33-2.29,56.31,6.41,62.45-5.25a44.31,44.31,0,0,0,4.89-19.11Z" style="opacity: 0.3; transform-origin: 153.25px 280.465px;" class="animable" id="elsshhqwliwl"></path></g><polygon points="115.09 327.98 100.29 322.62 101 316.67 116.49 320.75 115.09 327.98" style="fill: #ECEFF1; transform-origin: 108.39px 322.325px;" id="elvohjdfl9wps" class="animable"></polygon><path d="M97.91,331.33a8.61,8.61,0,0,0,2,.14.18.18,0,0,0,.16-.1.19.19,0,0,0,0-.18c-.2-.21-2-2-2.9-1.88a.67.67,0,0,0-.5.4.94.94,0,0,0,0,1A2,2,0,0,0,97.91,331.33Zm1.56-.2c-1.34,0-2.28-.25-2.55-.66a.6.6,0,0,1,0-.62.29.29,0,0,1,.23-.2C97.68,329.56,98.75,330.42,99.47,331.13Z" style="fill: #ECEFF1; transform-origin: 98.3093px 330.392px;" id="elkvmxo4krlle" class="animable"></path><path d="M99.85,331.47h.08a.17.17,0,0,0,.11-.12c0-.08.63-2.13,0-3a.85.85,0,0,0-.67-.38.64.64,0,0,0-.71.38c-.33.75.43,2.48,1.05,3.06Zm-.38-3.13a.51.51,0,0,1,.33.22,3.82,3.82,0,0,1,0,2.39A3.44,3.44,0,0,1,99,328.5c0-.09.12-.19.37-.17Z" style="fill: #ECEFF1; transform-origin: 99.4501px 329.714px;" id="elmnvxrrei32d" class="animable"></path><path d="M185.1,185.62c-.34,3.72-.88,7.22-1.46,10.81s-1.34,7.13-2.27,10.7a76.32,76.32,0,0,1-3.52,10.73,35.07,35.07,0,0,1-2.81,5.47,19.69,19.69,0,0,1-2.11,2.79,13.77,13.77,0,0,1-3.27,2.7l-.42.24-.23.08a11.49,11.49,0,0,1-6.73.22,20.47,20.47,0,0,1-4.72-1.86,30.8,30.8,0,0,1-3.86-2.5c-.6-.45-1.16-.94-1.72-1.43a21.7,21.7,0,0,1-1.66-1.56l3.14-4.55c1.17.38,2.43.87,3.64,1.23s2.41.75,3.56,1a15,15,0,0,0,3.14.44c.89,0,1.52-.24,1.36-.31l-.65.32a8.05,8.05,0,0,0,1.65-2.22,29.25,29.25,0,0,0,1.79-4,81.14,81.14,0,0,0,2.67-9.4c.73-3.27,1.36-6.6,1.91-10s1-6.8,1.46-10.06Z" style="fill: rgb(255, 195, 189); transform-origin: 167.71px 207.11px;" id="elj8sb0hfedri" class="animable"></path><path d="M175.22,180.14c-6.88,6-6.5,20.6-6.5,20.6l18.18,6.56c3.85-6,5.74-17.46,5.4-22.38C191.77,177.36,183.38,173,175.22,180.14Z" style="fill: rgb(38, 50, 56); transform-origin: 180.528px 191.906px;" id="el8t3lxkqkka4" class="animable"></path><g id="el5fq9terc7wv"><path d="M192.31,185.2c-3.27-1.57-7.74-1.07-12.16,2.79-4,3.49-5.55,9.92-6.13,14.67l12.88,4.64C190.68,201.4,192.57,190.25,192.31,185.2Z" style="opacity: 0.2; transform-origin: 183.177px 195.834px;" class="animable" id="elwacd86smlyc"></path></g><polygon points="80.67 319.02 78.47 311.98 93.77 303.68 95.96 310.72 80.67 319.02" style="fill: rgb(255, 195, 189); transform-origin: 87.215px 311.35px;" id="el0pxr4wug1p6g" class="animable"></polygon><path d="M79,311.32l5.54,6.15a.52.52,0,0,1,0,.74l-4.6,4.69a1.3,1.3,0,0,1-1.84-.08c-1.89-2.17-2.69-3.31-5.13-6-1.5-1.66-6.77-7.15-8.84-9.45s.26-4.28,1.34-3.49c4.86,3.53,9.73,6.36,12.34,6.81A2.14,2.14,0,0,1,79,311.32Z" style="fill: rgb(38, 50, 56); transform-origin: 73.998px 313.473px;" id="elina6ri6naam" class="animable"></path><g id="el5i40prglayc"><polygon points="95.96 310.72 93.77 303.68 82.61 309.74 87.26 315.45 95.96 310.72" style="opacity: 0.2; transform-origin: 89.285px 309.565px;" class="animable" id="elsvc6epp4vuk"></polygon></g><path d="M191.8,239.5S153,244.7,145,255.32c-13.93,18.49-58,49-58,49l4,12.89s60.06-25.33,70.74-46.51c19.62-1.51,51.54,4.95,56.57-7.23,3.35-8.11,1.71-20.22,1.71-20.22Z" style="fill: #ECEFF1; transform-origin: 153.711px 278.355px;" id="elhk65fpv5ovt" class="animable"></path><g id="el46t2alak3n4"><path d="M191.8,239.5S153,244.7,145,255.32c-13.93,18.49-58,49-58,49l4,12.89s60.06-25.33,70.74-46.51c19.62-1.51,51.54,4.95,56.57-7.23,3.35-8.11,1.71-20.22,1.71-20.22Z" style="opacity: 0.2; transform-origin: 153.711px 278.355px;" class="animable" id="elksaiqv2l7x"></path></g><polygon points="91.78 319.08 83.24 305.31 88.7 300.82 96.92 315.64 91.78 319.08" style="fill: #ECEFF1; transform-origin: 90.08px 309.95px;" id="eljtorej33kya" class="animable"></polygon><path d="M76.24,310.24a9.35,9.35,0,0,0,1.51,1.28.17.17,0,0,0,.19,0,.16.16,0,0,0,.08-.17c0-.28-.37-2.79-1.24-3.22a.65.65,0,0,0-.63,0,1,1,0,0,0-.55.78A2,2,0,0,0,76.24,310.24Zm1.38.77c-1.08-.81-1.7-1.55-1.67-2a.62.62,0,0,1,.37-.5.31.31,0,0,1,.31,0C77.09,308.68,77.45,310,77.62,311Z" style="fill: #ECEFF1; transform-origin: 76.8114px 309.799px;" id="el5ve1jf0q6vx" class="animable"></path><path d="M77.72,311.5l.07,0a.13.13,0,0,0,.16,0c.08,0,1.76-1.35,1.8-2.38a.92.92,0,0,0-.31-.71.68.68,0,0,0-.81-.11c-.71.41-1.11,2.26-.95,3.1A.2.2,0,0,0,77.72,311.5Zm1.55-2.75a.51.51,0,0,1,.13.37c0,.62-.88,1.48-1.41,1.93a3.47,3.47,0,0,1,.81-2.43.33.33,0,0,1,.41.07Z" style="fill: #ECEFF1; transform-origin: 78.6976px 309.871px;" id="elmefsfu349jr" class="animable"></path><path d="M155.39,218.84l-5.88-5.68-4.08,8s7.14,3.91,8.93,2.12Z" style="fill: rgb(255, 195, 189); transform-origin: 150.41px 218.455px;" id="elkihu3zaqll" class="animable"></path><polygon points="141.7 213.1 140.64 219.66 145.43 221.11 149.51 213.16 141.7 213.1" style="fill: rgb(255, 195, 189); transform-origin: 145.075px 217.105px;" id="elagj0u3hyzr6" class="animable"></polygon><path d="M219.62,175.2c-.74-1.95-2.06-3.88-4.15-3.85-.43,0-3,0-3.46.06-2.4.06-5.4.22-8.3.59a145.81,145.81,0,0,0-16.51,2.87c-2.5.68-4.9,1.53-6.82,2.26l-.07,0a5.37,5.37,0,0,0-3.39,5.53c1,10.57,3.48,39.92,2,55.12l41,5.4c2.46-7.82,3.44-25.73,3.46-40.33C223.46,194.08,222.67,183.17,219.62,175.2Z" style="fill: rgb(38, 50, 56); transform-origin: 200.14px 207.265px;" id="el3anqlvwlcdn" class="animable"></path><g id="el8d2jd2u5cj4"><path d="M223.24,195.34l-.81.06-5.2,4.5-5.38,18.53-18.48,3.23c4.49,2.27,17.55,2.73,25.27.68a6.15,6.15,0,0,0,4.52-5.72c.19-4.63.28-9.33.28-13.74C223.44,200.49,223.39,197.94,223.24,195.34Z" style="opacity: 0.2; transform-origin: 208.405px 209.494px;" class="animable" id="ele0ov62gks4w"></path></g><path d="M156.89,201.39s3.61-2,10.38-.06A17.46,17.46,0,0,0,178.8,201l2.53,4.74-23,.8Z" style="fill: #ECEFF1; transform-origin: 169.11px 203.512px;" id="elkbo11o6b57" class="animable"></path><g id="elszdrtkqgjm"><path d="M156.89,201.39s3.61-2,10.38-.06A17.46,17.46,0,0,0,178.8,201l2.53,4.74-23,.8Z" style="fill: rgb(255, 255, 255); opacity: 0.8; transform-origin: 169.11px 203.512px;" class="animable" id="el5clui8ecd5g"></path></g><path d="M156.89,201.39s-.15-1.45-4.52-1.6c-8.79-.29-12.5-2.54-12.5-2.54l-.36,2.27,18.81,7Z" style="fill: #ECEFF1; transform-origin: 148.915px 201.885px;" id="el15zmg0wfdwy" class="animable"></path><g id="eljzq53mm4gnr"><path d="M156.89,201.39s-.15-1.45-4.52-1.6c-8.79-.29-12.5-2.54-12.5-2.54l-.36,2.27,18.81,7Z" style="fill: rgb(255, 255, 255); opacity: 0.8; transform-origin: 148.915px 201.885px;" class="animable" id="elj1fhgqkf8v"></path></g><path d="M164.28,235.13,148,230.49a1.31,1.31,0,0,1-.86-.87l-8.33-30.16a.79.79,0,0,1,1-1l15.51,4.43Z" style="fill: #ECEFF1; transform-origin: 151.525px 216.775px;" id="elqjjx7e49i8l" class="animable"></path><path d="M189.61,236.54l-21.4-1.19-8.91-32.26L181,204.3a1.21,1.21,0,0,1,1.06.88l8.38,30.32A.77.77,0,0,1,189.61,236.54Z" style="fill: #ECEFF1; transform-origin: 174.896px 219.819px;" id="el1u0pr3x78al" class="animable"></path><polygon points="164.28 235.13 168.21 235.35 159.3 203.09 155.37 202.87 164.28 235.13" style="fill: #ECEFF1; transform-origin: 161.79px 219.11px;" id="eltnz1yqqk8x" class="animable"></polygon><g id="elsyarrt5scd"><polygon points="164.28 235.13 168.21 235.35 159.3 203.09 155.37 202.87 164.28 235.13" style="opacity: 0.3; transform-origin: 161.79px 219.11px;" class="animable" id="el5abp3uz1d62"></polygon></g><path d="M221.63,182.53c.21,1.44.35,2.66.45,4s.17,2.58.23,3.88c.09,2.58.07,5.17-.09,7.77a59.5,59.5,0,0,1-2.89,15.69c0,.09-.18.52-.3.84a10.3,10.3,0,0,1-.47.94,9.54,9.54,0,0,1-1.12,1.57,10.65,10.65,0,0,1-2.47,2.05,18,18,0,0,1-4.54,1.92,38.28,38.28,0,0,1-8.12,1.23,74.74,74.74,0,0,1-15.28-.85l.26-5.53a139.57,139.57,0,0,0,14-2,35.18,35.18,0,0,0,6.2-1.77,8.37,8.37,0,0,0,2.08-1.15c.21-.18.31-.33.29-.35s-.05,0-.08.07a1,1,0,0,0-.08.11s-.06.18,0,0a57.06,57.06,0,0,0,1.1-6.45c.21-2.22.36-4.47.39-6.75s0-4.58-.1-6.88c-.05-1.15-.11-2.3-.2-3.44l-.14-1.71-.15-1.6Z" style="fill: rgb(255, 195, 189); transform-origin: 204.697px 202.516px;" id="elgcpe0ecgwmg" class="animable"></path><path d="M221.63,173.69c-4.86-3.71-11.57-3.6-14.32,6.17-1.8,6.4-.84,19.28-.84,19.28l19.41-.39C228.05,188.51,226.55,177.45,221.63,173.69Z" style="fill: rgb(38, 50, 56); transform-origin: 216.532px 185.288px;" id="elw53f8c1ffuj" class="animable"></path><path d="M201.8,155.68l-4.08,4.79L192.16,167a19.82,19.82,0,0,1,.87,2.56c1,3.46-2.15,4.16-5,5.91,0,0-4.27,5.65,6,4s11.73-7,11.73-7C201.15,169.34,201.48,161.66,201.8,155.68Z" style="fill: rgb(255, 195, 189); transform-origin: 196.455px 167.726px;" id="el8jprqbwcx8" class="animable"></path><path d="M197.12,178.8a25.65,25.65,0,0,1-3.15.69,17.18,17.18,0,0,1-4.16.25l-.24,1.19c-.37.26-.46,1.65,1.88,3.3C193.92,183.72,197.75,181.61,197.12,178.8Z" style="fill: #ECEFF1; transform-origin: 193.28px 181.515px;" id="elmvviktd0e9i" class="animable"></path><path d="M203.94,170.75s-1.94,5.19-9,7.09c1,2.75-.64,5.88-.64,5.88s9.85-3.37,11.9-6.74,1.17-5.34,1.17-5.34A8.51,8.51,0,0,0,203.94,170.75Z" style="fill: rgb(38, 50, 56); transform-origin: 200.929px 177.235px;" id="elhaduc30dqzt" class="animable"></path><path d="M190,183.49s.07-4.3,1.33-5.74c-.66-1.94-.31-3,.71-4.69a8.49,8.49,0,0,0-5.31,3.46C185.38,178.77,186.32,183.55,190,183.49Z" style="fill: rgb(38, 50, 56); transform-origin: 189.092px 178.275px;" id="el8scl73im402" class="animable"></path><g id="el0q0kh98izdc"><path d="M192.16,167a19.82,19.82,0,0,1,.87,2.56c2.34-.91,5.13-4.06,5-6.6a11.54,11.54,0,0,0-.35-2.49Z" style="opacity: 0.2; transform-origin: 195.097px 165.015px;" class="animable" id="elzogk7f5fa8"></path></g><path d="M178.61,144.2c-1.93,4.05-.27,13.67,8.88,9.84S181.75,137.63,178.61,144.2Z" style="fill: rgb(38, 50, 56); transform-origin: 184.159px 148.628px;" id="ele46hp21cnze" class="animable"></path><path d="M198.69,152.61c-.84,1.75-.12,5.91,3.83,4.26S200,149.77,198.69,152.61Z" style="fill: rgb(38, 50, 56); transform-origin: 201.08px 154.527px;" id="el0nfvxzzlxtx" class="animable"></path><path d="M199.8,155.41c-1.28,1.46-1.71,5.66,2.55,5.13S201.87,153,199.8,155.41Z" style="fill: rgb(38, 50, 56); transform-origin: 201.494px 157.747px;" id="elxr6yzv301f" class="animable"></path><path d="M200.8,144.49c1.66,7.75,3,12.18.31,17.29a10.3,10.3,0,0,1-18.24.12c-3.52-6.32-5.65-17.93.87-23.29A10.43,10.43,0,0,1,200.8,144.49Z" style="fill: rgb(255, 195, 189); transform-origin: 191.084px 151.71px;" id="elho8n47wihff" class="animable"></path><path d="M199.42,135.48c-1.58-6.88-10.8-4.49-15.5-.33s-5.91,7.43-9.87,9.89c7.31,1,17.66-1.9,19.6-4.36a7.72,7.72,0,0,0,3.16,6.26,51,51,0,0,0,0,6.47l3.34-1.7,3.89-1.56C209.78,140.45,206.39,134.46,199.42,135.48Z" style="fill: rgb(38, 50, 56); transform-origin: 190.5px 142.275px;" id="elre1hzjajh6p" class="animable"></path><path d="M191.09,149.82a.26.26,0,0,1-.26-.22.26.26,0,0,1,.21-.31l10.84-1.85a.27.27,0,0,1,.31.22.26.26,0,0,1-.22.3l-10.84,1.85Z" style="fill: rgb(255, 255, 255); transform-origin: 196.509px 148.628px;" id="el3122y2ki04w" class="animable"></path><path d="M189.64,156.25h0c-2,0-4.2-2.15-4.91-4.76a4.43,4.43,0,0,1,.45-3.89,2.41,2.41,0,0,1,2-1h0c2,0,4.21,2.15,4.92,4.76h0a4.49,4.49,0,0,1-.46,3.9A2.4,2.4,0,0,1,189.64,156.25Zm-2.51-9.08a1.9,1.9,0,0,0-1.55.75,4,4,0,0,0-.36,3.43c.65,2.4,2.63,4.36,4.41,4.37a1.8,1.8,0,0,0,1.56-.75,4,4,0,0,0,.37-3.43c-.65-2.4-2.63-4.36-4.41-4.37Z" style="fill: rgb(255, 255, 255); transform-origin: 188.411px 151.425px;" id="elb8079k8atod" class="animable"></path><path d="M183.45,153a.32.32,0,0,1-.14,0,.26.26,0,0,1-.09-.37,2,2,0,0,1,2-.73.28.28,0,0,1,.2.32.27.27,0,0,1-.32.2s-1-.22-1.47.49A.25.25,0,0,1,183.45,153Z" style="fill: rgb(255, 255, 255); transform-origin: 184.301px 152.432px;" id="el2ps7znwqwf9" class="animable"></path><path d="M205.45,150.42a8.37,8.37,0,0,1-3.29,4.91c-2.17,1.48-3.87-.36-3.78-2.94.08-2.32,1.3-5.88,3.73-6.33S206,148,205.45,150.42Z" style="fill: rgb(255, 195, 189); transform-origin: 201.971px 150.931px;" id="ele19klzudqde" class="animable"></path><path d="M188.44,151c.29.57.22,1.2-.15,1.4s-.9-.1-1.19-.68-.21-1.2.15-1.4S188.15,150.42,188.44,151Z" style="fill: rgb(38, 50, 56); transform-origin: 187.772px 151.36px;" id="elnhdlohn5mrb" class="animable"></path><path d="M182.1,153.6c.26.59.16,1.21-.22,1.39s-.9-.15-1.15-.74-.15-1.22.23-1.39S181.85,153,182.1,153.6Z" style="fill: rgb(38, 50, 56); transform-origin: 181.419px 153.926px;" id="elveeerbhwqu" class="animable"></path><path d="M178.9,150.07a.38.38,0,0,0,.26-.25,3.15,3.15,0,0,1,1.88-2,.38.38,0,0,0,.25-.47.36.36,0,0,0-.46-.25h0a3.85,3.85,0,0,0-2.39,2.54.36.36,0,0,0,.24.47A.34.34,0,0,0,178.9,150.07Z" style="fill: rgb(38, 50, 56); transform-origin: 179.862px 148.598px;" id="elmyzf1ipnz9s" class="animable"></path><path d="M181.93,158.31h0c-1.82,0-3.83-2-4.48-4.34a4.08,4.08,0,0,1,.42-3.56,2.19,2.19,0,0,1,1.8-.87h0c1.83,0,3.84,2,4.49,4.34h0a4.08,4.08,0,0,1-.42,3.55A2.19,2.19,0,0,1,181.93,158.31Zm-2.28-8.25a1.67,1.67,0,0,0-1.38.68,3.56,3.56,0,0,0-.33,3.09c.59,2.17,2.37,3.94,4,3.95h0a1.69,1.69,0,0,0,1.39-.67,3.6,3.6,0,0,0,.33-3.09h0c-.59-2.17-2.38-3.94-4-4Z" style="fill: rgb(255, 255, 255); transform-origin: 180.804px 153.925px;" id="elb87csoemfh9" class="animable"></path><path d="M184.2,152.68a20.37,20.37,0,0,1-.88,5.36,3.12,3.12,0,0,0,2.6-.49Z" style="fill: rgb(237, 132, 126); transform-origin: 184.62px 155.409px;" id="el1ziwizghygo" class="animable"></path><path d="M187.22,159.85a5.53,5.53,0,0,0,3.38-2.72.19.19,0,0,0-.1-.25.2.2,0,0,0-.25.09,5.27,5.27,0,0,1-3.82,2.68.2.2,0,0,0-.16.22.19.19,0,0,0,.22.15A5.2,5.2,0,0,0,187.22,159.85Z" style="fill: rgb(38, 50, 56); transform-origin: 188.442px 158.444px;" id="elkrl2bwnzfij" class="animable"></path><path d="M189.36,146.32a.33.33,0,0,0,.13-.13.38.38,0,0,0-.13-.52,3.64,3.64,0,0,0-3.4-.21.37.37,0,0,0-.16.51.38.38,0,0,0,.51.16,2.88,2.88,0,0,1,2.67.19A.35.35,0,0,0,189.36,146.32Z" style="fill: rgb(38, 50, 56); transform-origin: 187.649px 145.756px;" id="elmv3o00urln" class="animable"></path><path d="M189.27,216.35,183,213.69l.21,8s6.21,2.51,7.24-.8Z" style="fill: rgb(255, 195, 189); transform-origin: 186.725px 218.146px;" id="elfia04ia5eiv" class="animable"></path><polygon points="175.21 215.48 176.59 221.17 183.22 221.66 183.01 213.69 175.21 215.48" style="fill: rgb(255, 195, 189); transform-origin: 179.215px 217.675px;" id="eldve7bcucuqr" class="animable"></polygon></g><defs>     <filter id="active" height="200%">         <feMorphology in="SourceAlpha" result="DILATED" operator="dilate" radius="2"></feMorphology>                <feFlood flood-color="#32DFEC" flood-opacity="1" result="PINK"></feFlood>        <feComposite in="PINK" in2="DILATED" operator="in" result="OUTLINE"></feComposite>        <feMerge>            <feMergeNode in="OUTLINE"></feMergeNode>            <feMergeNode in="SourceGraphic"></feMergeNode>        </feMerge>    </filter>    <filter id="hover" height="200%">        <feMorphology in="SourceAlpha" result="DILATED" operator="dilate" radius="2"></feMorphology>                <feFlood flood-color="#ff0000" flood-opacity="0.5" result="PINK"></feFlood>        <feComposite in="PINK" in2="DILATED" operator="in" result="OUTLINE"></feComposite>        <feMerge>            <feMergeNode in="OUTLINE"></feMergeNode>            <feMergeNode in="SourceGraphic"></feMergeNode>        </feMerge>            <feColorMatrix type="matrix" values="0   0   0   0   0                0   1   0   0   0                0   0   0   0   0                0   0   0   1   0 "></feColorMatrix>    </filter></defs></svg>